<?xml version="1.0" standalone="no"?>
<!DOCTYPE svg PUBLIC "-//W3C//DTD SVG 20010904//EN"
 "http://www.w3.org/TR/2001/REC-SVG-20010904/DTD/svg10.dtd">
<svg version="1.0" xmlns="http://www.w3.org/2000/svg"
 width="225.000000pt" height="225.000000pt" viewBox="0 0 225.000000 225.000000"
 preserveAspectRatio="xMidYMid meet">
<metadata>
Created by potrace 1.14, written by Peter Selinger 2001-2017
</metadata>
<g transform="translate(0.000000,225.000000) scale(0.100000,-0.100000)"
fill="#000000" stroke="none">
<path d="M965 2240 c-489 -76 -863 -445 -949 -935 -17 -93 -14 -314 4 -390 6
-27 14 -60 16 -73 10 -53 68 -195 109 -267 141 -247 358 -426 623 -515 246
-82 533 -74 771 21 366 147 622 464 696 864 16 85 12 297 -7 394 -83 416 -387
748 -793 866 -44 13 -96 26 -115 29 -65 11 -295 15 -355 6z"/>
</g>
</svg>
